<svg xmlns="http://www.w3.org/2000/svg" width="1820" height="127" viewBox="0 0 1820 127">
  <defs>
    <style>
      .cls-1 {
        fill: #fff;
      }
    </style>
  </defs>
  <g id="HOL235848_copy_DESK" transform="translate(-50 -430)">
    <rect id="BB" class="cls-1" width="1820" height="127" transform="translate(50 430)"/>
    <g id="Outline" transform="translate(-9.707)">
      <path id="Path_5228" data-name="Path 5228" d="M5.724-37.365C4.452-9.7,24.168,2.385,51.039,2.385c40.227,0,43.407-24.645,43.407-32.436,0-18.6-13.356-25.6-29.415-29.892L37.365-66.78c-9.222-2.226-17.172-6.678-17.172-17.331,0-16.854,13.674-22.578,28.461-22.578,16.059,0,30.369,8.745,31,26.076H90.471c.159-23.214-19.557-35.3-41.976-35.3-31.959,0-39.114,20.829-39.114,31.959,0,17.649,12.243,24.009,25.6,27.348l25.281,6.2c10.494,2.544,23.373,7.632,23.373,20.511,0,16.536-18.126,23.055-30.051,23.055-20.67,0-37.524-7.155-37.047-30.528ZM99.057,0h11.607l13.674-35.3h51.675L189.846,0h11.607l-44.52-113.526H144.849Zm51.357-102.714L172.356-44.52H127.677ZM211.788,0H286.2V-9.222H222.6v-104.3H211.788Zm85.383,0h79.182V-9.222h-68.37V-54.06h63.282v-9.222H307.983V-104.3h67.575v-9.222H297.171Z" transform="translate(54.041 545.975)"/>
      <path id="Path_5227" data-name="Path 5227" d="M32.4-35.7H27.65v22.8c0,6.3-3.3,9.75-9.3,9.75-6.3,0-9.9-3.45-9.9-9.75V-35.7H3.7v22.8C3.7-3.4,9.15.85,18.35.85,27.25.85,32.4-3.9,32.4-12.9ZM59.45-13.15c0,5.05-1.95,10-7.75,10-5.85,0-8.15-4.7-8.15-9.8,0-4.85,2.2-9.75,7.9-9.75C56.95-22.7,59.45-18,59.45-13.15ZM39.45,9.9H43.7V-3.45h.1C45.7-.4,49.5.6,52.15.6c7.9,0,11.8-6.15,11.8-13.45S60-26.45,52.05-26.45c-3.55,0-6.85,1.25-8.25,4.1h-.1v-3.5H39.45Zm49.3-43.5H84.5v7.75H80.1v3.75h4.4V-5.65C84.5-.9,86.25,0,90.65,0H93.9V-3.75H91.95c-2.65,0-3.2-.35-3.2-2.3V-22.1H93.9v-3.75H88.75ZM97.2-12.9C97.2-5.35,101.55.6,109.75.6S122.3-5.35,122.3-12.9c0-7.6-4.35-13.55-12.55-13.55S97.2-20.5,97.2-12.9Zm4.5,0c0-6.3,3.6-9.8,8.05-9.8s8.05,3.5,8.05,9.8c0,6.25-3.6,9.75-8.05,9.75S101.7-6.65,101.7-12.9Zm61.75-21.95H140.5v4h18.6C151.65-22.95,145.9-12,145.1,0h4.75c.65-11.1,6.45-24.1,13.6-31.2Zm25.85,0H171.8l-3.3,18.4,3.65.2a8.508,8.508,0,0,1,6.6-3.35,7.678,7.678,0,0,1,8,8.05c0,5.65-3.45,8.4-7.5,8.4-4.25,0-7.2-2.75-7.45-6.4h-4.25C167.7-3.15,172.7.6,178.85.6c8.25,0,12.4-5.8,12.4-11.8,0-8.1-5.15-12.15-11.45-12.15a8.969,8.969,0,0,0-6.6,2.55l-.1-.1L175-31.1h14.3ZM222.9-9.3c0,5.4,2.05,9.9,8.1,9.9,5.8,0,8-4.85,8-10.05,0-5.45-1.8-10-8-10C224.85-19.45,222.9-14.65,222.9-9.3Zm3.75-.1c0-3,.65-7.3,4.35-7.3,3.75,0,4.25,4.3,4.25,7.25,0,3.1-.6,7.3-4.4,7.3C227.1-2.15,226.65-6.5,226.65-9.4ZM198.2-25.3c0,5.4,2.05,9.9,8.1,9.9,5.8,0,8-4.85,8-10.05,0-5.45-1.8-10-8-10C200.15-35.45,198.2-30.65,198.2-25.3Zm3.75-.1c0-3,.65-7.3,4.35-7.3,3.75,0,4.25,4.3,4.25,7.25,0,3.1-.6,7.3-4.4,7.3C202.4-18.15,201.95-22.5,201.95-25.4ZM203,1.1h4.3l26.85-37.2H229.9Zm56.4-18.95c0,9.7,5.75,18.7,17.1,18.7s17.1-9,17.1-18.7-5.75-18.7-17.1-18.7S259.4-27.55,259.4-17.85Zm4.75,0c0-7.2,3.65-14.7,12.35-14.7s12.35,7.5,12.35,14.7S285.2-3.15,276.5-3.15,264.15-10.65,264.15-17.85ZM300.45,0h4.25V-22.1h5v-3.75h-5v-3.6c0-2.25,1.2-2.9,3.25-2.9a7.972,7.972,0,0,1,2.4.35v-3.7a10.451,10.451,0,0,0-2.75-.4c-4.65,0-7.15,2.2-7.15,6.4v3.85H296.1v3.75h4.35Zm14.9,0h4.25V-22.1h5v-3.75h-5v-3.6c0-2.25,1.2-2.9,3.25-2.9a7.972,7.972,0,0,1,2.4.35v-3.7a10.451,10.451,0,0,0-2.75-.4c-4.65,0-7.15,2.2-7.15,6.4v3.85H311v3.75h4.35ZM344.1,0h4.5V-29.7h.1L359.85,0h4.05l11.15-29.7h.1V0h4.5V-35.7h-6.5l-11.3,30-11.25-30h-6.5Zm58.75-9c0,2.35-2.3,5.85-7.9,5.85-2.6,0-5-1-5-3.8,0-3.15,2.4-4.15,5.2-4.65,2.85-.5,6.05-.55,7.7-1.75Zm6.9,5.6a3.649,3.649,0,0,1-1.3.25c-1.35,0-1.35-.9-1.35-2.9v-13.3c0-6.05-5.05-7.1-9.7-7.1-5.75,0-10.7,2.25-10.95,8.65h4.25c.2-3.8,2.85-4.9,6.45-4.9,2.7,0,5.75.6,5.75,4.3,0,3.2-4,2.9-8.7,3.8-4.4.85-8.75,2.1-8.75,7.95C385.45-1.5,389.3.6,394,.6a11.471,11.471,0,0,0,9.1-4c0,2.8,1.4,4,3.6,4a5.732,5.732,0,0,0,3.05-.7Zm3.8,3.4h4.25V-11.5c0-6.55,2.5-10.45,9.35-10.45v-4.5c-4.6-.15-7.45,1.9-9.5,6.05h-.1v-5.45h-4ZM430.6,0h4.25V-9.8l4-3.7L447.7,0h5.4l-11-16.45,10.25-9.4h-5.7l-11.8,11.3V-35.7H430.6Zm48.8-35.7h-4.25v13.3h-.1c-1.9-3.05-5.7-4.05-8.35-4.05-7.9,0-11.8,6.15-11.8,13.45S458.85.6,466.8.6c3.55,0,6.85-1.25,8.25-4.1h.1V0h4.25Zm-20,23c0-5.05,1.95-10,7.75-10,5.85,0,8.15,4.7,8.15,9.8,0,4.85-2.2,9.75-7.9,9.75C461.9-3.15,459.4-7.85,459.4-12.7Zm25.15-.2C484.55-5.35,488.9.6,497.1.6s12.55-5.95,12.55-13.5c0-7.6-4.35-13.55-12.55-13.55S484.55-20.5,484.55-12.9Zm4.5,0c0-6.3,3.6-9.8,8.05-9.8s8.05,3.5,8.05,9.8c0,6.25-3.6,9.75-8.05,9.75S489.05-6.65,489.05-12.9ZM548.5-25.85h-4.4L538.3-4.7h-.1l-5.4-21.15h-4.65L522.95-4.7h-.1L517-25.85h-4.7L520.6,0h4.6l5.2-20.55h.1L535.75,0h4.5ZM552.55,0h4.25V-14.6c0-4.65,2.5-8.1,7.65-8.1a4.87,4.87,0,0,1,5.25,5.2V0h4.25V-17c0-5.55-2.1-9.45-8.9-9.45a9,9,0,0,0-8.4,4.7h-.1v-4.1h-4ZM578.7-8.15c.25,6.4,5.15,8.75,10.95,8.75,5.25,0,11-2,11-8.15,0-5-4.2-6.4-8.45-7.35-3.95-.95-8.45-1.45-8.45-4.5,0-2.6,2.95-3.3,5.5-3.3,2.8,0,5.7,1.05,6,4.35h4.25c-.35-6.3-4.9-8.1-10.6-8.1-4.5,0-9.65,2.15-9.65,7.35,0,4.95,4.25,6.35,8.45,7.3,4.25.95,8.45,1.5,8.45,4.8,0,3.25-3.6,3.85-6.25,3.85-3.5,0-6.8-1.2-6.95-5Z" transform="translate(512.041 546.975)"/>
    </g>
  </g>
</svg>
